<?xml version="1.0"?>
<svg width="128" height="128" xmlns="http://www.w3.org/2000/svg" xmlns:svg="http://www.w3.org/2000/svg" preserveAspectRatio="xMidYMid meet">
 <linearGradient y2="0.501919" y1="0.501919" x2="0.997373" x1="-0.002227" id="IconifyId-16d3b3d2607-9921b3-8">
  <stop offset="0" stop-color="#eee"/>
  <stop offset="1" stop-color="#BDBDBD"/>
 </linearGradient>
 <radialGradient gradientUnits="userSpaceOnUse" gradientTransform="matrix(1.0014 -.00222 .00217 1.0244 -1.09 -2.98)" r="56.906" cy="60.328" cx="33.366" id="IconifyId-16d3b3d2607-9921b3-9">
  <stop offset="0" stop-color="#81D4FA"/>
  <stop offset="1" stop-color="#1B99DE"/>
 </radialGradient>
 <g>
  <title>Layer 1</title>
  <path id="svg_1" stroke-width="4" stroke-miterlimit="10" stroke-linejoin="round" stroke-linecap="round" stroke="#3592CA" fill="none" d="m122.269997,64.169998c-1.609993,0.169998 -3.599998,-0.399998 -6.649994,-1.07c-5.130005,-1.129997 -7.450005,-1.379997 -9.600006,-0.259998c-0.889999,0.470001 -1.93,0.040001 -2.309998,-0.91c-1.379997,-3.420002 -11.620003,-6.459999 -14.449997,-7.450001c-1.43,-0.5 -3.090004,-0.119999 -3.010002,1.400002c0.07,1.219997 0.830002,3.57 2.440002,5.389999c4.43,4.999996 9.610001,9.170002 8.199997,12.939999c-1.110001,2.970001 -6.519997,22.879997 -21.279999,16.330002c-10.590004,-4.690002 8.979996,-31.25 -23.130001,-39.940002c-50.85,-13.759998 -46.539999,35.450005 -46.539999,35.450005l0.17,0.110001c-0.13,-0.060005 -0.21,-0.090004 -0.21,-0.090004s-0.33,19.190002 19.579999,27.260002c10.189999,4.129997 20.939999,5.519997 30.959999,4.549995c6.150002,3.350006 11.850002,4.920006 11.030003,3.68c-1.190002,-1.799995 -2.239998,-3.439995 -3.190002,-4.959999c10.730003,-2.479996 20.110001,-7.830002 26.32,-15.510002c0.419998,-0.329994 0.770004,-0.699997 1.029999,-1.089996c8.420006,-13.040001 11.530006,-26.870003 16.93,-27.550003c6.150002,-0.779999 11.150002,-1.110001 15.139999,-5.629997c0.990005,-1.110001 0.030006,-2.809998 -1.43,-2.650002z"/>
  <path id="svg_2" fill="#81D4FA" d="m31.76,24.620001c-0.65,0 -1.300001,-0.150002 -1.98,-0.470001c-0.970001,-0.449999 -1.52,-1.190001 -1.560001,-2.08c-0.039999,-1.049999 0.620001,-2.1 1.720001,-2.74c0.559999,-0.32 1.279999,-0.48 2.159998,-0.48c1.150002,0 2.510002,0.299999 3.830002,0.83c1.639999,0.66 3.049999,1.619999 3.989998,2.639999l-0.299999,0c-1.689999,0.050001 -3.139999,0.700001 -4.419998,1.280001c-1.170002,0.52 -2.280003,1.02 -3.440001,1.02z"/>
  <path id="svg_3" fill="#449ACE" d="m32.099998,19.9c1.02,0 2.240002,0.27 3.440002,0.76c0.669998,0.27 1.309998,0.6 1.879997,0.960001c-0.969997,0.269999 -1.839996,0.66 -2.639999,1.029999c-1.110001,0.5 -2.07,0.940001 -3.009998,0.940001c-0.5,0 -1,-0.120001 -1.530001,-0.370001c-0.619999,-0.289999 -0.940001,-0.689999 -0.959999,-1.179998c-0.030001,-0.650002 0.439999,-1.35 1.199999,-1.790001c0.370001,-0.24 0.940001,-0.35 1.619999,-0.35m0,-2.1c-1.009998,0 -1.929998,0.190001 -2.679998,0.620001c-2.780001,1.6 -3.17,5.219999 -0.09,6.67c0.870001,0.41 1.67,0.57 2.42,0.57c2.779999,0 4.919998,-2.219999 7.880001,-2.299999l0.099998,0c0.790001,0 1.549999,0.269999 2.299999,0.51c-0.57,-2.1 -3,-4.070002 -5.709999,-5.17c-1.400002,-0.560001 -2.889999,-0.900002 -4.220001,-0.900002z"/>
  <path id="svg_4" fill="#81D4FA" d="m53.93,21.110001c3.380001,-6.97 8.48,-10.18 12.150002,-10.18c0.919998,0 1.699997,0.219999 2.259995,0.63c1.170006,0.87 1.690002,1.69 1.520004,2.45c-0.340004,1.55 -3.300003,3.190001 -7.200001,4c-2.959999,0.610001 -6.380001,1.959999 -8.73,3.1z"/>
  <path id="svg_5" fill="#449ACE" d="m66.080002,11.93c0.689995,0 1.290001,0.15 1.659996,0.44c0.860001,0.64 1.190002,1.18 1.139999,1.43c-0.18,0.8 -2.339996,2.39 -6.429996,3.23c-1.990002,0.41 -4.209999,1.16 -6.200001,1.959999c3.27,-5.09 7.380001,-7.059999 9.830002,-7.059999m-0.010002,-2c-4.27,0 -10.700001,4.01 -14.209999,13.49c0.759998,-0.67 6.369999,-3.469999 10.989998,-4.43c6.25,-1.299999 10.800003,-4.73 6.080002,-8.23c-0.730003,-0.55 -1.720001,-0.83 -2.860001,-0.83z"/>
  <path id="svg_6" fill="#81D4FA" d="m47.889999,27.93c-0.75,-6.809999 -4.029999,-12.79 -9.57,-17.09c-0.82,-0.63 -1.389999,-1.77 -1.349998,-2.690001c0.02,-0.53 0.219997,-0.92 0.629997,-1.19a3.42,3.42 0 0 1 1.950001,-0.59c2.760002,0 6.060001,2.940001 7.510002,6.7c1.399998,3.610001 1.619999,9.41 0.829998,14.860001z"/>
  <path id="svg_7" fill="#449ACE" d="m39.540001,7.37c2.329998,0 5.279999,2.72 6.579998,6.06c0.799999,2.059999 1.200001,4.879999 1.23,7.92c-1.649998,-4.390001 -4.489998,-8.25 -8.419998,-11.3c-0.549999,-0.43 -0.990002,-1.27 -0.970001,-1.87c0.010002,-0.27 0.110001,-0.34 0.190002,-0.400001c0.419998,-0.28 0.879997,-0.41 1.389999,-0.41m0,-2c-0.880001,0 -1.73,0.24 -2.510002,0.76c-1.919998,1.29 -1,4.21 0.670002,5.5c7.43,5.77 10.880001,14.79 8.719997,25.349999c2.980003,-6.5 4.010002,-17.939999 1.560001,-24.27c-1.610001,-4.18 -5.220001,-7.34 -8.439999,-7.34z"/>
  <path id="svg_8" fill="#81D4FA" d="m50.360001,37.200001c1.450001,-5.220001 3.709999,-9.380001 6.75,-12.41c2.739998,-2.740002 8.330002,-4.880001 12.709999,-4.880001c1.459999,0 3.989998,0.26 4.519997,2.02c0.140007,0.469999 0.090004,0.869999 -0.179993,1.27c-0.660004,1 -2.390007,1.619999 -3.350006,1.73c-11.409996,1.25 -17.279999,6.690001 -20.449997,12.27z"/>
  <path id="svg_9" fill="#449ACE" d="m69.82,20.91c0.739998,0 3.199997,0.09 3.559998,1.309999c0.060005,0.210001 0.030006,0.300001 -0.049995,0.43c-0.410004,0.620001 -1.720001,1.190001 -2.620003,1.280001c-7.950001,0.869999 -13.299999,3.690001 -16.950001,7.199999c1.130001,-2.189999 2.490002,-4.07 4.050003,-5.639999c2.539997,-2.52 7.929996,-4.58 12.009998,-4.58m0,-2c-4.449997,0 -10.389999,2.15 -13.419998,5.17c-5.82,5.799999 -8.210003,14.910002 -8.82,24.160002c1.619999,-7.580002 5.049999,-20.320002 23.339996,-22.320002c1.740005,-0.190001 5.169998,-1.629999 4.370003,-4.280001c-0.57,-1.92 -2.739998,-2.73 -5.470001,-2.73z"/>
  <path id="svg_10" fill="url(#IconifyId-16d3b3d2607-9921b3-8)" d="m49.919998,97.839996c-2.449997,-1.679993 -5.759998,-3.289993 -9.089996,-2.559998c-9.220001,2.020004 -34.930002,-9.209999 -34.930002,-9.209999s-0.33,19.190002 19.579999,27.260002c24.920002,10.119995 53.23,3.82 66.039997,-13.400002c0.18,-0.25 -25.869995,8.669998 -41.599998,-2.090004z"/>
  <path id="svg_11" fill="url(#IconifyId-16d3b3d2607-9921b3-9)" d="m115.620003,63.09c-5.130005,-1.130001 -7.450005,-1.380001 -9.600006,-0.259998c-0.889999,0.469997 -1.93,0.039997 -2.309998,-0.910004c-1.379997,-3.419998 -11.620003,-6.459999 -14.449997,-7.449997c-1.43,-0.5 -3.090004,-0.120003 -3.010002,1.399998c0.07,1.220001 0.830002,3.57 2.440002,5.389999c4.43,5.000004 9.610001,9.170002 8.199997,12.939999c-1.110001,2.970001 -6.519997,22.880005 -21.279999,16.330002c-10.590004,-4.690002 8.979996,-31.25 -23.130001,-39.939999c-50.85,-13.75 -46.539999,35.460003 -46.539999,35.460003s12.98,8.759995 34.920001,9.989998c0.349998,0.019997 0.169998,4.25 2.48,9.769997c4.43,10.57 25.670002,18.080002 24.130001,15.760002c-10.34,-15.620003 -10.950001,-20.540001 -10.82,-20.470001c7.259998,3.660004 31.150002,4.840004 34.979996,-1.089996c8.420006,-13.040001 11.530006,-26.870003 16.93,-27.550003c6.150002,-0.779999 11.150002,-1.110001 15.139999,-5.629997c0.980003,-1.110001 0.020004,-2.800003 -1.439995,-2.650002c-1.599998,0.159996 -3.590004,-0.420002 -6.639999,-1.09z"/>
  <ellipse id="svg_12" fill="#fff" ry="6.27" rx="6.1" cy="80.77" cx="32.49"/>
  <ellipse id="svg_13" fill="#000" ry="3.27" rx="3.18" cy="79.4" cx="33.13"/>
 </g>
</svg>