<?xml version="1.0" encoding="UTF-8" standalone="no"?>
<svg
   xmlns:dc="http://purl.org/dc/elements/1.1/"
   xmlns:cc="http://creativecommons.org/ns#"
   xmlns:rdf="http://www.w3.org/1999/02/22-rdf-syntax-ns#"
   xmlns:svg="http://www.w3.org/2000/svg"
   xmlns="http://www.w3.org/2000/svg"
   viewBox="0 0 308.07999 308.07999"
   height="308.07999"
   width="308.07999"
   xml:space="preserve"
   id="svg2"
   version="1.1"><metadata
     id="metadata8"><rdf:RDF><cc:Work
         rdf:about=""><dc:format>image/svg+xml</dc:format><dc:type
           rdf:resource="http://purl.org/dc/dcmitype/StillImage" /></cc:Work></rdf:RDF></metadata><defs
     id="defs6"><clipPath
       id="clipPath14"
       clipPathUnits="userSpaceOnUse"><path
         id="path12"
         d="M 0,0 H 595 V 842 H 0 Z" /></clipPath></defs><g
     clip-path="url(#clipPath14)"
     transform="matrix(1.3333333,0,0,-1.3333333,-245.73333,775.14667)"
     id="g10"><g
       id="g16"><path
         id="path18"
         style="fill:#184654;fill-opacity:1;fill-rule:nonzero;stroke:none"
         d="m 381.027,547.027 c 44.844,-44.844 44.844,-117.55 0,-162.394 -44.844,-44.844 -117.55,-44.844 -162.394,0 -44.844,44.844 -44.844,117.55 0,162.394 44.844,44.844 117.55,44.844 162.394,0 z" /></g><g
       id="g20"><path
         id="path22"
         style="fill:#fffff0;fill-opacity:1;fill-rule:nonzero;stroke:none"
         d="m 235.353,467.028 c 2.88,8.758 5.399,17.395 7.799,26.514 h 0.479 c 2.521,-9.119 5.039,-17.756 7.919,-26.514 l 3.719,-11.997 H 231.634 Z M 211.359,423 h 10.199 l 7.558,23.994 h 28.672 L 265.227,423 h 10.676 L 249.27,501.7 H 237.992 L 211.359,423" /></g><g
       id="g24"><path
         id="path26"
         style="fill:#fffff0;fill-opacity:1;fill-rule:nonzero;stroke:none"
         d="m 281.097,423 h 46.548 v 8.517 h -36.59 v 28.553 h 29.872 v 8.518 h -29.872 v 24.714 h 35.39 V 501.7 H 281.097 V 423" /></g><g
       id="g28"><path
         id="path30"
         style="fill:#fffff0;fill-opacity:1;fill-rule:nonzero;stroke:none"
         d="m 338.297,423 h 9.958 v 31.192 h 12.956 c 17.275,0 29.033,7.797 29.033,24.353 0,17.275 -11.877,23.155 -29.513,23.155 h -22.434 z m 9.958,39.35 v 31.311 h 11.276 c 13.797,0 20.755,-3.719 20.755,-15.116 0,-11.156 -6.598,-16.195 -20.275,-16.195 h -11.756" /></g></g></svg>